<svg width="23" height="29" fill="none" xmlns="http://www.w3.org/2000/svg"><g fill="#3A3939"><path d="M17.673 16.322c.11.223.384.713.65 1.298.136.29.283.597.408.902.127.305.262.597.356.862.947 2.427 1.575 4.96 1.978 7.528.053.402.119 1.09.46 1.056.353-.036.52-.525.435-1.254-.235-1.76-.679-3.482-1.122-5.183a24.332 24.332 0 0 0-1.273-3.641 36.184 36.184 0 0 0-1.748-3.437 32.622 32.622 0 0 0-1.896-2.897 39.721 39.721 0 0 0-2.183-2.686c-1.449-1.608-3.003-3.139-4.759-4.417-.75-.56-1.55-1.05-2.355-1.52-.412-.222-.817-.452-1.233-.66-.42-.204-.83-.422-1.258-.609a9.739 9.739 0 0 1-.628-.328 10.01 10.01 0 0 0-.67-.317A14.117 14.117 0 0 0 1.472.515C1.31.463 1.136.427.983.36.276.061.05.117.177.574.204.675.11.764.264.877.27.881.282.892.29.896c.222.2.472.32.734.41.258.101.527.177.789.28a30.29 30.29 0 0 1 7.15 4.135c1.337 1.047 2.608 2.188 3.735 3.46.315.344.578.73.91 1.065l-.005-.007c.16.187.305.385.456.581.15.195.302.388.454.582 1.146 1.465 2.18 3.116 3.05 4.675.035.06.063.153.11.245Z"/><path d="M18.58 22.198c-.196-.354-.902-1.604-1.343-2.412-1.018-1.87-2.044-3.737-3.163-5.546-.175-.282-.448-.776-.742-.6-.307.183-.306.616-.016 1.116.704 1.212 1.455 2.406 2.072 3.658.904 1.832 1.928 3.592 2.893 5.386.433.805.875 1.607 1.316 2.41.217.389.436.831.773 1.239.17.202.363.409.659.568.148.075.32.142.517.15.191.008.388-.023.566-.118.087-.037.157-.097.231-.154a1.415 1.415 0 0 0 .39-.594 3.01 3.01 0 0 0 .163-.758c.05-.484.005-.96-.023-1.373-.057-.857-.117-1.712-.196-2.567-.139-1.476-.362-2.944-.529-4.417-.039-.347-.014-.771-.054-1.15-.033-.315-.085-.84-.142-1.15-.025-.133-.055-.272-.054-.405.003-.61-.136-.76-.507-.524-.082.051-.198.009-.243.161-.003.006-.006.019-.01.024-.194.465-.043.91-.007 1.372.179 2.256.383 4.51.577 6.767l.185 2.076c.033.356.06.666.042.977a2.441 2.441 0 0 1-.059.435.932.932 0 0 1-.128.319c-.014.014-.026.038-.039.042-.012.01-.023.02-.033.02-.019.01-.033.002-.054.005a.599.599 0 0 1-.172-.05h.004a1.33 1.33 0 0 1-.292-.297 5.346 5.346 0 0 1-.289-.432c-.09-.145-.175-.301-.27-.474l-.276-.507-.553-1.017a84.989 84.989 0 0 0-1.102-1.977c-.027-.053-.05-.13-.092-.203Z"/></g></svg>