<svg width="81" height="75" fill="none" xmlns="http://www.w3.org/2000/svg"><path d="M45.67 55.76c.651.405 2.078 1.39 3.789 2.39.847.513 1.745 1.06 2.641 1.547.895.49 1.75.997 2.529 1.38 7.133 3.742 14.639 6.669 22.29 9 1.2.337 3.254.846 3.094 1.755-.168.946-1.668 1.163-3.845.583-5.247-1.487-10.35-3.521-15.386-5.544a87.07 87.07 0 0 1-10.726-5.211c-3.452-1.972-6.787-4.133-10.03-6.406-2.911-2.044-5.689-4.259-8.38-6.549-2.678-2.31-5.223-4.733-7.696-7.225-4.585-4.711-8.916-9.674-12.455-15.062-1.552-2.308-2.89-4.716-4.163-7.133-.594-1.226-1.216-2.438-1.77-3.67-.54-1.239-1.125-2.46-1.61-3.712-.241-.587-.555-1.22-.878-1.865a29.349 29.349 0 0 1-.839-1.973c-.426-1.064-.998-2.87-1.278-3.951C.831 3.648.752 3.161.58 2.713-.203.647.007.06 1.36.623c.3.124.58-.087.896.384.012.019.04.056.052.076.566.7.88 1.437 1.106 2.192.26.75.441 1.519.706 2.28 2.682 7.438 6.462 14.668 11.19 21.427 2.916 4.137 6.125 8.143 9.755 11.818.979 1.021 2.097 1.922 3.043 2.986l-.017-.018c.532.526 1.102 1.016 1.666 1.521.561.5 1.113 1.007 1.67 1.514 4.206 3.82 8.992 7.425 13.526 10.538.176.125.45.245.718.42Z" fill="#2D2D2D"/><path d="M63.178 61.053c-1.031-.704-4.664-3.224-7.02-4.81-5.445-3.667-10.88-7.355-16.122-11.267-.818-.61-2.257-1.592-1.675-2.307.604-.745 1.904-.533 3.356.496 3.523 2.495 6.98 5.111 10.64 7.39 5.35 3.338 10.463 6.968 15.69 10.457a994.99 994.99 0 0 1 7.015 4.736c1.132.778 2.425 1.586 3.591 2.697.58.558 1.167 1.184 1.596 2.064.198.439.37.941.36 1.478-.009.525-.137 1.043-.453 1.481-.127.22-.32.382-.503.556a3.625 3.625 0 0 1-1.233.627c-.21.07-.417.11-.62.145-.815.141-1.573.13-2.308.081-1.464-.099-2.886-.448-4.123-.723a349.092 349.092 0 0 1-7.685-1.769c-4.413-1.086-8.785-2.4-13.187-3.56-1.036-.273-2.315-.41-3.449-.701-.94-.242-2.51-.635-3.43-.94-.396-.13-.81-.28-1.209-.34-1.836-.287-2.263-.737-1.489-1.631.17-.2.062-.534.528-.584.018-.005.057-.008.075-.012 1.429-.308 2.744.318 4.123.637 6.754 1.572 13.496 3.21 20.245 4.824l6.21 1.502c1.064.26 1.993.483 2.93.584a8.08 8.08 0 0 0 1.318.049c.403-.02.763-.091.98-.195.047-.03.121-.052.133-.086.035-.028.064-.054.067-.08.034-.046.012-.088.025-.145 0-.104-.026-.203-.12-.49v.01c-.156-.27-.478-.612-.845-.937a18.74 18.74 0 0 0-1.247-.993c-.42-.316-.877-.622-1.38-.961-.491-.333-.984-.662-1.475-.995l-2.963-1.993a300.134 300.134 0 0 1-5.751-3.946c-.156-.101-.382-.201-.595-.349Z" fill="#2D2D2D"/></svg>