<svg width="68" height="98" fill="none" xmlns="http://www.w3.org/2000/svg"><path d="M51.196 59.107c.204.743.783 2.395 1.238 4.328.247.962.514 1.983.702 2.986.194 1.003.43 1.97.54 2.832 1.318 7.947 1.355 16.042.52 24.12-.169 1.26-.549 3.397.749 3.482 1.35.088 2.415-1.317 2.763-3.593.721-5.51.637-11.025.533-16.471a60.572 60.572 0 0 0-1.427-11.84c-.853-3.89-2.02-7.716-3.383-11.48-1.228-3.381-2.754-6.677-4.424-9.91-1.705-3.223-3.63-6.348-5.683-9.421C39.396 28.418 35 22.878 29.63 17.996c-2.284-2.126-4.812-4.069-7.384-5.953-1.33-.905-2.63-1.833-3.99-2.7-1.376-.855-2.706-1.75-4.128-2.556-.66-.39-1.343-.865-2.04-1.35a35.543 35.543 0 0 0-2.201-1.343c-1.202-.698-3.32-1.736-4.62-2.295-.558-.248-1.168-.454-1.678-.741C1.232-.253.341-.205.395 1.263c.01.324-.417.543.05.975.019.016.054.055.074.071.644.738 1.466 1.24 2.358 1.66.868.453 1.802.834 2.683 1.294 8.553 4.592 16.263 10.197 22.853 16.602 4.023 3.941 7.719 8.134 10.756 12.65.859 1.224 1.486 2.554 2.42 3.759l-.016-.022c.428.658.788 1.345 1.172 2.029.378.68.772 1.352 1.16 2.03 2.934 5.114 5.281 10.738 7.1 15.985.076.205.095.504.19.811Z" fill="#3A3939"/><path d="M49.231 77.58c-.409-1.192-1.9-5.403-2.805-8.12-2.088-6.283-4.21-12.56-6.732-18.71-.393-.96-.962-2.624-2.218-2.246-1.307.39-1.695 1.715-1.07 3.404 1.516 4.097 3.227 8.162 4.384 12.334 1.699 6.102 3.91 12.051 5.874 18.074.88 2.702 1.793 5.4 2.707 8.096.455 1.311.868 2.786 1.75 4.218.447.713.98 1.452 1.934 2.104.484.31 1.067.61 1.79.744.705.13 1.464.143 2.212-.048.36-.066.674-.21 1.002-.343.29-.15.59-.313.823-.49a5.63 5.63 0 0 0 .651-.546c.203-.186.364-.377.513-.566.61-.756.987-1.499 1.3-2.228.624-1.453.89-2.932 1.163-4.211.565-2.652 1.12-5.302 1.602-7.961.827-4.59 1.328-9.202 2.048-13.801.17-1.083.647-2.366.844-3.549.161-.98.448-2.615.516-3.593.028-.42.042-.863.167-1.269.565-1.866.184-2.401-1.41-1.885-.354.112-.745-.081-1.053.36-.015.016-.04.053-.055.07-1.147 1.31-.99 2.759-1.276 4.188-1.386 7.002-2.676 14.01-4.002 21.017l-1.198 6.453c-.203 1.106-.384 2.07-.733 3.01-.169.465-.376.91-.615 1.299-.233.387-.515.719-.765.903-.065.038-.132.105-.184.107-.055.027-.105.048-.141.044-.08.02-.125-.011-.207-.014-.14-.028-.258-.079-.593-.247l.012.003c-.278-.224-.57-.629-.814-1.073-.251-.449-.47-.96-.684-1.48-.204-.493-.378-1.02-.572-1.6-.191-.568-.377-1.135-.568-1.702l-1.133-3.419a214.955 214.955 0 0 0-2.305-6.654c-.054-.18-.071-.426-.159-.672Z" fill="#3A3939"/></svg>