<svg width="60" height="83" fill="none" xmlns="http://www.w3.org/2000/svg"><path d="M45.791 34.84c.295-.644 1.03-2.066 1.746-3.749.37-.835.766-1.721 1.108-2.6.345-.876.71-1.718.969-2.476 2.594-6.968 4.398-14.183 5.64-21.462.169-1.139.395-3.079 1.246-3.038.886.043 1.26 1.392.983 3.453-.75 4.978-2.017 9.89-3.281 14.736a80.364 80.364 0 0 1-3.52 10.43c-1.404 3.392-2.994 6.699-4.697 9.933-1.531 2.905-3.236 5.707-5.019 8.439-1.802 2.72-3.725 5.334-5.718 7.89-3.78 4.749-7.819 9.294-12.339 13.164-1.933 1.69-3.982 3.195-6.047 4.644-1.053.687-2.09 1.398-3.154 2.049-1.071.639-2.121 1.317-3.211 1.908-.51.289-1.052.65-1.606 1.02-.562.35-1.141.703-1.708 1-.925.514-2.512 1.249-3.47 1.63-.411.171-.848.3-1.239.51-1.8.958-2.361.834-2.003-.47.078-.288-.148-.521.246-.865.016-.013.047-.044.063-.057.576-.6 1.213-.974 1.879-1.268.656-.326 1.34-.581 2.006-.912C11.163 75.424 17.343 71.119 22.98 66c3.449-3.152 6.742-6.558 9.684-10.312.82-1.015 1.516-2.144 2.38-3.135l-.015.019c.419-.549.802-1.129 1.198-1.704.392-.572.793-1.136 1.192-1.706 3.007-4.297 5.75-9.1 8.071-13.616.094-.176.172-.44.301-.706Z" fill="#3A3939"/><path d="M48.594 18.189c-.524 1.027-2.407 4.648-3.586 6.99-2.722 5.414-5.465 10.821-8.435 16.078-.464.821-1.195 2.253-1.917 1.803-.753-.465-.711-1.681.061-3.13 1.875-3.518 3.867-6.99 5.527-10.606 2.432-5.289 5.16-10.395 7.744-15.588a968.8 968.8 0 0 1 3.519-6.977c.58-1.128 1.17-2.406 2.05-3.604.444-.595.948-1.207 1.704-1.701.379-.234.819-.45 1.312-.503.481-.053.971.004 1.409.242.217.09.387.248.568.395a3.357 3.357 0 0 1 .718 1.057c.088.185.15.369.204.55.225.73.303 1.426.344 2.105.08 1.352-.073 2.695-.18 3.86a322.32 322.32 0 0 1-.724 7.244c-.479 4.167-1.172 8.325-1.721 12.49-.13.981-.106 2.169-.24 3.24-.112.89-.288 2.374-.46 3.252-.073.377-.162.773-.17 1.146-.049 1.715-.41 2.159-1.32 1.554-.203-.131-.496.006-.597-.415-.006-.016-.013-.05-.02-.067-.447-1.273-.028-2.55.103-3.85.651-6.369 1.365-12.734 2.056-19.102l.65-5.862c.114-1.005.21-1.881.193-2.751a7.431 7.431 0 0 0-.11-1.213c-.064-.367-.172-.688-.292-.874-.033-.04-.062-.106-.095-.113-.029-.029-.056-.052-.08-.051-.046-.026-.083-.002-.136-.007-.096.013-.183.047-.435.167l.009-.001c-.228.175-.504.509-.759.883-.26.378-.512.813-.764 1.258-.24.422-.467.876-.72 1.376-.247.489-.49.978-.738 1.467l-1.48 2.946a277.844 277.844 0 0 1-2.942 5.727c-.074.155-.14.373-.25.585Z" fill="#3A3939"/></svg>