<svg width="46" height="56" fill="none" xmlns="http://www.w3.org/2000/svg"><path d="M37.766 28 21.49 7.637a1.817 1.817 0 0 1-.312-.573 2.085 2.085 0 0 1 .01-1.348 1.8 1.8 0 0 1 .319-.567 1.44 1.44 0 0 1 .474-.373 1.213 1.213 0 0 1 1.107.025c.174.094.331.228.462.395L40.8 26.78c.261.326.407.764.407 1.22 0 .456-.146.894-.407 1.22L23.55 50.804a1.476 1.476 0 0 1-.462.395 1.212 1.212 0 0 1-1.107.026 1.441 1.441 0 0 1-.474-.374 1.8 1.8 0 0 1-.32-.567 2.08 2.08 0 0 1-.009-1.348c.072-.214.178-.409.312-.573L37.766 28Z" fill="#3A3939"/></svg>