<svg width="46" height="56" fill="none" xmlns="http://www.w3.org/2000/svg"><path d="M8.234 28 24.51 48.363c.134.164.24.359.312.573a2.09 2.09 0 0 1-.01 1.348 1.804 1.804 0 0 1-.319.567 1.441 1.441 0 0 1-.474.373 1.213 1.213 0 0 1-1.107-.025 1.474 1.474 0 0 1-.462-.395L5.2 29.22A1.965 1.965 0 0 1 4.793 28c0-.456.146-.894.407-1.22L22.45 5.196c.131-.167.288-.302.462-.395a1.213 1.213 0 0 1 1.107-.026c.177.086.338.212.474.374.137.161.245.354.32.567a2.083 2.083 0 0 1 .01 1.348 1.82 1.82 0 0 1-.313.573L8.234 28Z" fill="#3A3939"/></svg>